<svg xmlns="http://www.w3.org/2000/svg" viewBox="0 0 820 248" width="820" height="248" role="img" aria-label="Guilherme — Backend Developer">
  <style>
    .ink   { fill: #0a0a0a; }
    .muted { fill: #6b7280; }
    @media (prefers-color-scheme: dark) {
      .ink   { fill: #ededed; }
      .muted { fill: #8b929c; }
    }
    .eyebrow { font-family: ui-monospace,'SF Mono','Menlo','Consolas',monospace; font-size: 14px; letter-spacing: 8px; }
    .caption { font-family: ui-monospace,'SF Mono','Menlo','Consolas',monospace; font-size: 14px; letter-spacing: 4px; }
  </style>

  <text x="410" y="46"  text-anchor="middle" class="eyebrow muted">BACKEND DEVELOPER</text>
  <g transform="translate(112,168)"><path class="ink" d="M70.432 -61.752Q65.472 -76.26 48.856 -76.26Q37.076 -76.26 30.317999999999998 -67.952Q23.56 -59.644 23.56 -45.012Q23.56 -31.124 30.814 -22.195999999999998Q38.068 -13.268 49.352 -13.268Q51.088 -13.268 53.382000000000005 -13.702Q55.676 -14.136 58.900000000000006 -15.437999999999999Q62.124 -16.74 64.852 -18.848Q67.58 -20.956 69.688 -24.738Q71.796 -28.52 72.292 -33.356H51.708V-48.856H87.916V0.0H76.756L74.524 -11.904Q69.316 -4.34 62.868 -0.8679999999999999Q56.42 2.604 47.244 2.604Q28.892 2.604 16.926 -10.788Q4.96 -24.18 4.96 -44.764Q4.96 -65.844 17.112 -78.988Q29.264 -92.132 48.732 -92.132Q65.1 -92.132 75.63999999999999 -83.94800000000001Q86.17999999999999 -75.764 87.916 -61.752Z M161.548 0.0H144.188V-7.936Q136.996 2.852 124.10000000000001 2.852Q113.436 2.852 107.546 -3.224Q101.656 -9.3 101.656 -20.336V-66.96H119.016V-23.932Q119.016 -11.904 130.176 -11.904Q136.5 -11.904 140.344 -15.5Q144.188 -19.096 144.188 -25.048V-66.96H161.548Z M192.648 -66.96V0.0H175.288V-66.96ZM192.648 -90.396V-74.896H175.288V-90.396Z M223.748 -90.396V0.0H206.388V-90.396Z M278.284 -40.92Q278.284 -53.32 267.62 -53.32Q261.792 -53.32 258.01 -49.6Q254.22799999999998 -45.88 254.22799999999998 -40.176V0.0H236.868V-90.396H254.22799999999998V-57.288Q261.42 -68.076 273.82 -68.076Q277.788 -68.076 281.322 -67.02199999999999Q284.856 -65.968 288.26599999999996 -63.55Q291.676 -61.132 293.65999999999997 -56.296Q295.644 -51.46 295.644 -44.888V0.0H278.284Z M336.664 -68.076Q341.004 -68.076 345.096 -67.084Q349.188 -66.092 353.466 -63.488Q357.744 -60.884 360.906 -56.854Q364.068 -52.824 366.052 -46.19Q368.036 -39.556 368.036 -31.0Q368.036 -29.512 367.91200000000003 -28.024H323.024Q323.148 -24.18 323.706 -21.39Q324.264 -18.6 325.69 -15.934000000000001Q327.116 -13.268 329.906 -11.842Q332.696 -10.416 336.91200000000003 -10.416Q346.832 -10.416 350.18 -18.848H367.29200000000003Q364.44 -8.928 356.00800000000004 -3.0380000000000003Q347.576 2.852 336.29200000000003 2.852Q322.032 2.852 313.84799999999996 -6.386Q305.664 -15.624 305.664 -31.744Q305.664 -48.608 313.972 -58.342Q322.28000000000003 -68.076 336.664 -68.076ZM349.932 -39.556Q349.312 -46.872 345.90200000000004 -50.84Q342.492 -54.808 336.416 -54.808Q325.008 -54.808 323.272 -39.556Z M378.056 -66.96H395.416V-53.816Q398.144 -60.636 403.104 -64.356Q408.06399999999996 -68.076 414.01599999999996 -68.076Q415.132 -68.076 416.12399999999997 -67.952V-50.344Q413.024 -50.839999999999996 410.668 -50.839999999999996Q395.416 -50.839999999999996 395.416 -35.588V0.0H378.056Z M423.664 -66.96H440.9V-58.652Q445.24 -63.736 449.394 -65.90599999999999Q453.548 -68.076 459.25199999999995 -68.076Q472.39599999999996 -68.076 477.47999999999996 -58.156Q484.91999999999996 -68.076 497.072 -68.076Q507.116 -68.076 512.758 -62.62Q518.4 -57.164 518.4 -47.368V0.0H501.03999999999996V-44.64Q501.03999999999996 -48.608 498.498 -50.964Q495.956 -53.32 491.616 -53.32Q486.036 -53.32 482.874 -49.848Q479.712 -46.376 479.712 -40.176V0.0H462.352V-44.64Q462.352 -48.608 459.80999999999995 -50.964Q457.268 -53.32 452.928 -53.32Q447.34799999999996 -53.32 444.186 -49.848Q441.024 -46.376 441.024 -40.176V0.0H423.664Z M559.4200000000001 -68.076Q563.76 -68.076 567.8520000000001 -67.084Q571.9440000000001 -66.092 576.222 -63.488Q580.5 -60.884 583.662 -56.854Q586.8240000000001 -52.824 588.808 -46.19Q590.792 -39.556 590.792 -31.0Q590.792 -29.512 590.668 -28.024H545.7800000000001Q545.904 -24.18 546.462 -21.39Q547.02 -18.6 548.446 -15.934000000000001Q549.8720000000001 -13.268 552.662 -11.842Q555.452 -10.416 559.668 -10.416Q569.5880000000001 -10.416 572.936 -18.848H590.048Q587.196 -8.928 578.764 -3.0380000000000003Q570.332 2.852 559.048 2.852Q544.788 2.852 536.604 -6.386Q528.4200000000001 -15.624 528.4200000000001 -31.744Q528.4200000000001 -48.608 536.7280000000001 -58.342Q545.0360000000001 -68.076 559.4200000000001 -68.076ZM572.688 -39.556Q572.068 -46.872 568.658 -50.84Q565.248 -54.808 559.172 -54.808Q547.764 -54.808 546.028 -39.556Z"/></g>
  <text x="410" y="212" text-anchor="middle" class="caption muted">MOGI DAS CRUZES, SP — BR</text>
</svg>
